<?xml version="1.0" encoding="iso-8859-1"?>
<!-- Generator: Adobe Illustrator 19.0.0, SVG Export Plug-In . SVG Version: 6.00 Build 0)  -->
<svg version="1.1" id="Layer_1" xmlns="http://www.w3.org/2000/svg" xmlns:xlink="http://www.w3.org/1999/xlink" x="0px" y="0px"
	 viewBox="0 0 512 512" style="enable-background:new 0 0 512 512;" xml:space="preserve">
<g>
	<g>
		<path d="M71.86,188.632c-29.719,0-53.895,24.175-53.895,53.895s24.175,53.895,53.895,53.895c29.719,0,53.895-24.175,53.895-53.895
			S101.579,188.632,71.86,188.632z M71.86,278.456c-19.816,0-35.93-16.118-35.93-35.93s16.114-35.93,35.93-35.93
			c19.816,0,35.93,16.118,35.93,35.93S91.675,278.456,71.86,278.456z"/>
	</g>
</g>
<g>
	<g>
		<path d="M440.14,188.632c-29.719,0-53.895,24.175-53.895,53.895s24.175,53.895,53.895,53.895
			c29.719,0,53.895-24.175,53.895-53.895S469.86,188.632,440.14,188.632z M440.14,278.456c-19.816,0-35.93-16.118-35.93-35.93
			s16.114-35.93,35.93-35.93c19.816,0,35.93,16.118,35.93,35.93S459.956,278.456,440.14,278.456z"/>
	</g>
</g>
<g>
	<g>
		<path d="M260.491,0c-29.719,0-53.895,24.175-53.895,53.895s24.175,53.895,53.895,53.895s53.895-24.175,53.895-53.895
			S290.211,0,260.491,0z M260.491,89.825c-19.816,0-35.93-16.118-35.93-35.93c0-19.811,16.114-35.93,35.93-35.93
			c19.816,0,35.93,16.118,35.93,35.93C296.421,73.706,280.307,89.825,260.491,89.825z"/>
	</g>
</g>
<g>
	<g>
		<path d="M125.737,411.452c9.246-10.987,17.982-21.368,17.982-34.189c0-39.623-32.237-71.86-71.86-71.86
			C32.237,305.404,0,337.64,0,377.263c0,12.82,8.246,23.202,17.491,34.189c7.053,8.377,15.07,17.873,19.561,29.465v0.005
			c4.491,7.237,2.377,17.052,1.167,26.548c-1.588,12.535-2.982,25.5,5.307,34.908C49.228,508.851,58.544,512,71.737,512
			s22.447-3.149,28.149-9.623c8.289-9.408,6.68-22.373,5.092-34.908c-1.21-9.496-2.441-19.311,0.691-26.553
			C110.678,429.325,118.684,419.829,125.737,411.452z M89.193,433.79c-5.079,11.75-3.448,24.601-2.009,35.939
			c1.088,8.579,2.211,17.452-0.711,20.772c-2.009,2.281-7.202,3.535-14.614,3.535c-7.412,0-12.605-1.254-14.614-3.535
			c-2.921-3.32-1.553-12.193-0.465-20.772c1.439-11.338,2.728-24.189-1.763-35.939v0.004c-6.737-14.018-15.202-24.588-23.044-33.912
			c-7.386-8.772-13.886-16.351-13.886-22.618c0-29.719,24.114-53.895,53.833-53.895c29.719,0,53.864,24.175,53.864,53.895
			c0,6.268-6.393,13.846-13.779,22.618C104.164,409.206,95.246,419.776,89.193,433.79z"/>
	</g>
</g>
<g>
	<g>
		<path d="M494.018,411.452C503.263,400.465,512,390.083,512,377.263c0-39.623-32.237-71.86-71.86-71.86s-71.86,32.237-71.86,71.86
			c0,12.82,8.246,23.202,17.491,34.189c7.053,8.377,15.07,17.873,19.561,29.465v0.005c4.491,7.237,2.377,17.052,1.167,26.548
			c-1.588,12.535-2.982,25.5,5.307,34.908c5.702,6.474,15.018,9.623,28.211,9.623s22.447-3.149,28.149-9.623
			c8.289-9.408,6.68-22.373,5.092-34.908c-1.21-9.496-2.441-19.311,0.691-26.553C478.958,429.325,486.965,419.829,494.018,411.452z
			 M457.474,433.79c-5.079,11.75-3.448,24.601-2.009,35.939c1.088,8.579,2.211,17.452-0.711,20.772
			c-2.009,2.281-7.202,3.535-14.614,3.535c-7.412,0-12.605-1.254-14.614-3.535c-2.921-3.32-1.553-12.193-0.465-20.772
			c1.439-11.338,2.728-24.189-1.763-35.939v0.004c-6.737-14.018-15.202-24.588-23.044-33.912
			c-7.386-8.772-13.886-16.351-13.886-22.618c0-29.719,24.114-53.895,53.833-53.895c29.719,0,53.864,24.175,53.864,53.895
			c0,6.268-6.393,13.846-13.779,22.618C472.445,409.206,463.526,419.776,457.474,433.79z"/>
	</g>
</g>
<g>
	<g>
		<path d="M314.36,222.82c9.248-10.987,17.987-21.368,17.987-34.189c0-39.623-32.234-71.86-71.857-71.86
			c-39.623,0-71.857,32.237-71.857,71.86c0,12.82,8.246,23.202,17.491,34.189c7.053,8.377,15.07,17.873,19.561,29.465v0.004
			c4.491,7.237,2.377,17.053,1.167,26.548c-1.588,12.535-2.982,25.5,5.307,34.908c5.702,6.474,15.018,9.623,28.211,9.623
			s22.447-3.149,28.149-9.623c8.289-9.408,6.68-22.373,5.092-34.908c-1.21-9.496-2.441-19.311,0.691-26.553
			C299.309,240.693,307.307,231.197,314.36,222.82z M277.825,245.158c-5.079,11.75-3.447,24.601-2.009,35.939
			c1.088,8.579,2.211,17.452-0.711,20.772c-2.009,2.281-7.202,3.535-14.614,3.535c-7.412,0-12.605-1.254-14.614-3.535
			c-2.921-3.32-1.553-12.193-0.465-20.772c1.439-11.338,2.728-24.189-1.763-35.939v0.004c-6.737-14.018-15.202-24.588-23.044-33.912
			c-7.386-8.772-13.886-16.351-13.886-22.618c0-29.719,24.052-53.895,53.772-53.895s53.895,24.175,53.895,53.895
			c0,6.268-6.377,13.846-13.763,22.618C292.781,220.575,283.877,231.145,277.825,245.158z"/>
	</g>
</g>
<g>
	<g>
		<path d="M202.833,253.18c-4.026-2.868-9.64-1.943-12.526,2.092l-44.912,62.877c-2.886,4.035-1.947,9.645,2.088,12.531
			c1.579,1.127,3.403,1.671,5.211,1.671c2.807,0,5.562-1.307,7.316-3.763l44.912-62.877
			C207.807,261.675,206.868,256.066,202.833,253.18z"/>
	</g>
</g>
<g>
	<g>
		<path d="M375.588,318.149l-44.912-62.877c-2.886-4.035-8.491-4.965-12.526-2.092c-4.035,2.886-4.974,8.496-2.088,12.531
			l44.912,62.877c1.754,2.456,4.509,3.763,7.316,3.763c1.807,0,3.632-0.544,5.211-1.671
			C377.535,327.794,378.474,322.184,375.588,318.149z"/>
	</g>
</g>
<g>
	<g>
		<rect x="133.614" y="459.228" width="242.526" height="17.965"/>
	</g>
</g>
<g>
</g>
<g>
</g>
<g>
</g>
<g>
</g>
<g>
</g>
<g>
</g>
<g>
</g>
<g>
</g>
<g>
</g>
<g>
</g>
<g>
</g>
<g>
</g>
<g>
</g>
<g>
</g>
<g>
</g>
</svg>
